# xmcd
#
# Track frame offsets:
#	150
#	21846
#	39421
#	66357
#	89971
#	134052
#	158869
#	176043
#	197998
#	227738
#
# Disc length: 3391 seconds
#
# Revision: 2
# Processed by: cddbd v1.5.1PL2 Copyright (c) Steve Scherf et al.
# Submitted via: EasyCDDAExtractor 8.0.2.1
#
DISCID=950d3d0a
DTITLE=Judas Priest - Elysée Montmatre Paris 13-03-02 Disc 1
DYEAR=2002
DGENRE=Hard Rock
TTITLE0=Metal Gods
TTITLE1=Heading Out To The Highway
TTITLE2=Touch Of Evil
TTITLE3=Blood Stained
TTITLE4=Victim Of Changes
TTITLE5=One On One
TTITLE6=Diamonds and Rust
TTITLE7=Green Manalishi
TTITLE8=Beyond The Realms Of Death
TTITLE9=Burn In Hell
EXTD=
EXTT0=
EXTT1=
EXTT2=
EXTT3=
EXTT4=
EXTT5=
EXTT6=
EXTT7=
EXTT8=
EXTT9=
PLAYORDER=
